<svg id="Layer_1" data-name="Layer 1" xmlns="http://www.w3.org/2000/svg" width="1080" height="1920" viewBox="0 0 1080 1920"><title>zoa3</title><rect x="101.48" y="950.56" width="252.11" height="25.95" transform="translate(-603.23 425.02) rotate(-43.76)" style="fill:#010101"/><rect x="770.26" y="979.48" width="135.77" height="25.94" style="fill:#010101"/><polygon points="521.12 1044.21 535.83 1045.69 552.37 1044.02 567.78 1039.23 581.73 1031.64 593.9 1021.6 603.94 1009.44 611.52 995.49 616.32 980.07 617.99 963.54 616.32 947 611.52 931.59 603.94 917.63 593.9 905.47 581.73 895.43 567.78 887.85 552.37 883.05 535.83 881.38 535.83 881.38 519.29 883.05 503.88 887.85 489.93 895.43 477.76 905.47 467.72 917.63 460.14 931.59 455.35 947 453.67 963.54 455.35 980.07 460.14 995.49 467.72 1009.44 477.76 1021.6 489.93 1031.64 503.88 1039.23 519.29 1044.02 514.07 1069.44 493.79 1063.13 475.43 1053.15 459.43 1039.94 446.21 1023.93 436.24 1005.57 429.93 985.29 427.73 963.54 429.93 941.78 436.24 921.5 446.21 903.14 459.43 887.13 475.43 873.92 493.79 863.94 514.07 857.63 535.83 855.43 557.59 857.63 577.87 863.94 596.23 873.92 612.23 887.13 625.44 903.14 635.42 921.5 641.73 941.78 643.93 963.54 641.73 985.29 635.42 1005.57 625.44 1023.93 612.23 1039.94 596.23 1053.15 577.87 1063.13 557.59 1069.44 535.83 1071.64 535.83 1071.64 515.26 1069.56 521.12 1044.21" style="fill:#010101"/></svg>