<svg id="Layer_1" data-name="Layer 1" xmlns="http://www.w3.org/2000/svg" width="1080" height="1920" viewBox="0 0 1080 1920"><title>zoa3</title><polygon points="757.35 1003.11 723.81 1061.2 960.8 1061.2 927.26 1003.11 757.35 1003.11" style="fill:#010101"/><polygon points="902.28 959.83 842.31 855.96 782.34 959.83 902.28 959.83" style="fill:#010101"/><polygon points="285.76 866.28 117.92 866.28 117.92 1027.27 285.76 866.28" style="fill:#010101"/><polygon points="145 1061.2 312.85 1061.2 312.85 900.2 145 1061.2" style="fill:#010101"/><polyline points="521.12 1044.21 535.83 1045.69 552.37 1044.02 567.78 1039.23 581.73 1031.64 593.9 1021.6 603.94 1009.44 611.52 995.49 616.32 980.07 617.99 963.54 616.32 947 611.52 931.59 603.94 917.63 593.9 905.47 581.73 895.43 567.78 887.85 552.37 883.05 535.83 881.38 535.83 881.38 519.29 883.05 503.88 887.85 489.93 895.43 477.76 905.47 467.72 917.63 460.14 931.59 455.35 947 453.67 963.54 455.35 980.07 460.14 995.49 467.72 1009.44 477.76 1021.6 489.93 1031.64 503.88 1039.23 519.29 1044.02" style="fill:#010101"/></svg>