<svg id="Layer_1" data-name="Layer 1" xmlns="http://www.w3.org/2000/svg" width="1080" height="1919.99" viewBox="0 0 1080 1919.99"><title>zoai2</title><polygon points="618.11 964.13 616.45 980.61 611.68 995.97 604.13 1009.87 594.14 1021.98 582.03 1031.97 568.14 1039.51 552.78 1044.28 536.29 1045.94 519.8 1044.28 504.44 1039.51 490.54 1031.97 478.44 1021.98 468.45 1009.87 460.9 995.97 456.14 980.61 454.47 964.13 456.14 947.64 460.9 932.28 468.45 918.38 478.44 906.27 490.54 896.28 504.44 888.74 519.8 883.97 536.29 882.31 552.78 883.97 568.14 888.74 582.03 896.28 594.14 906.27 604.13 918.38 611.68 932.28 616.45 947.64 618.11 964.13 618.11 964.13" style="fill:#ee7424"/><polygon points="127.51 867 127.51 1038.29 306.39 867 127.51 867" style="fill:#ee7424"/><polygon points="326.54 1060.79 326.54 889.49 147.65 1060.79 326.54 1060.79" style="fill:#ee7424"/><rect x="770.26" y="1005.07" width="135.77" height="0.35" style="fill:none"/><rect x="738.13" y="859.57" width="200.03" height="119.91" style="fill:#ee7424"/><rect x="738.13" y="1005.07" width="200.03" height="64.37" style="fill:#ee7424"/></svg>