<svg id="Layer_2" data-name="Layer 2" xmlns="http://www.w3.org/2000/svg" width="1080" height="1920" viewBox="0 0 1080 1920"><title>zoai1</title><polygon points="778.26 1006.43 899.44 1006.43 932.12 1063.03 744.16 1063.03 778.26 1006.43" style="fill:#ee7424"/><polygon points="838.14 900.25 884.46 980.48 793.26 980.48 838.14 900.25" style="fill:#ee7424"/><polygon points="617.65 963.54 615.99 980.02 611.22 995.38 603.67 1009.28 593.68 1021.39 581.57 1031.38 567.68 1038.92 552.32 1043.69 535.83 1045.35 519.34 1043.69 503.98 1038.92 490.08 1031.38 477.98 1021.39 467.99 1009.28 460.44 995.38 455.68 980.02 454.01 963.54 455.68 947.05 460.44 931.69 467.99 917.79 477.98 905.68 490.08 895.69 503.98 888.15 519.34 883.38 535.83 881.72 552.32 883.38 567.68 888.15 581.57 895.69 593.68 905.68 603.67 917.79 611.22 931.69 615.99 947.05 617.65 963.54 617.65 963.54" style="fill:#ee7424"/><polygon points="138.62 889.33 138.62 1032.76 288.41 889.33 138.62 889.33" style="fill:#ee7424"/><polygon points="320.71 1037.75 320.71 894.31 170.92 1037.75 320.71 1037.75" style="fill:#ee7424"/></svg>