<?xml version="1.0" encoding="utf-8"?>
<!-- Generator: Adobe Illustrator 21.1.0, SVG Export Plug-In . SVG Version: 6.00 Build 0)  -->
<svg version="1.1" id="Layer_1" xmlns="http://www.w3.org/2000/svg" xmlns:xlink="http://www.w3.org/1999/xlink" x="0px" y="0px"
	 viewBox="0 0 1080 1920" style="enable-background:new 0 0 1080 1920;" xml:space="preserve">
<style type="text/css">
	.st0{fill:#EE7424;}
</style>
<title>zoai2</title>
<polygon class="st0" points="618.1,964.1 616.5,980.6 611.7,996 604.1,1009.9 594.1,1022 582,1032 568.1,1039.5 552.8,1044.3 
	536.3,1045.9 519.8,1044.3 504.4,1039.5 490.5,1032 478.4,1022 468.5,1009.9 460.9,996 456.1,980.6 454.5,964.1 456.1,947.6 
	460.9,932.3 468.5,918.4 478.4,906.3 490.5,896.3 504.4,888.7 519.8,884 536.3,882.3 552.8,884 568.1,888.7 582,896.3 594.1,906.3 
	604.1,918.4 611.7,932.3 616.5,947.6 618.1,964.1 "/>
</svg>
